<svg version="1.1" id="Layer_1" xmlns="http://www.w3.org/2000/svg" xmlns:xlink="http://www.w3.org/1999/xlink" x="0px" y="0px"
	 width="100%" viewBox="0 0 926 926" enable-background="new 0 0 926 926" xml:space="preserve">
<path fill="#040404" opacity="1.000000" stroke="none" 
	d="
M1.000000,329.000000 
	C1.000000,219.333328 1.000000,110.166664 1.000000,1.000000 
	C309.666656,1.000000 618.333313,1.000000 927.000000,1.000000 
	C927.000000,309.666656 927.000000,618.333313 927.000000,927.000000 
	C618.333313,927.000000 309.666656,927.000000 1.000000,927.000000 
	C1.000000,727.833313 1.000000,528.666687 1.000000,329.000000 
M14.924966,15.855105 
	C14.748768,17.981630 14.418565,20.108139 14.418317,22.234684 
	C14.399788,181.222260 14.411246,340.209839 14.411600,499.197418 
	C14.411901,635.187012 14.401838,771.176636 14.396380,907.166260 
	C14.396303,909.097229 14.396371,911.028198 14.396371,913.057617 
	C314.291626,913.057617 613.512451,913.057617 913.136963,913.057617 
	C913.136963,910.601746 913.137024,908.457031 913.137024,906.312378 
	C913.137085,611.001709 913.138184,315.691010 913.105652,20.380325 
	C913.105469,18.830412 912.628967,17.280552 911.530884,15.537288 
	C910.531189,15.527157 909.531555,15.508151 908.531860,15.508146 
	C612.424316,15.506866 316.316772,15.506686 20.209211,15.512703 
	C18.712570,15.512733 17.215927,15.600771 14.924966,15.855105 
z"/>
<path fill="#FFFFFF" opacity="1.000000" stroke="none" 
	d="
M15.719285,15.647708 
	C17.215927,15.600771 18.712570,15.512733 20.209211,15.512703 
	C316.316772,15.506686 612.424316,15.506866 908.531860,15.508146 
	C909.531555,15.508151 910.531189,15.527157 911.763672,15.958948 
	C908.333862,20.171972 907.161560,24.566910 907.192383,29.935057 
	C907.655090,110.564804 907.966431,191.195618 908.164062,271.826538 
	C908.202332,287.457611 907.346313,303.090210 907.341431,318.722229 
	C907.281067,512.387146 907.302002,706.052002 907.302002,899.716919 
	C907.302002,901.989441 907.302063,904.261963 907.302063,906.323364 
	C903.107422,906.323364 899.649780,906.316772 896.192200,906.324402 
	C763.392700,906.617798 630.593323,907.018677 497.793671,907.151489 
	C448.826782,907.200500 399.859497,906.425354 350.891968,906.363342 
	C247.393097,906.232300 143.893906,906.299805 40.394909,906.371826 
	C32.776371,906.377136 25.158310,907.071777 16.736597,907.485474 
	C16.736597,906.470215 16.736597,904.228455 16.736597,901.986633 
	C16.736597,609.822693 16.739916,317.658752 16.694441,25.494808 
	C16.693932,22.212393 16.058388,18.930073 15.719285,15.647708 
M590.397522,371.117310 
	C596.303345,380.181702 602.146362,389.287811 608.133667,398.298096 
	C613.458862,406.311798 620.606689,408.345825 629.345520,404.301666 
	C633.114807,402.557312 636.740112,400.478851 640.339050,398.393646 
	C652.728943,391.215118 665.243469,384.231232 677.386841,376.654480 
	C685.907715,371.337891 687.483887,364.733398 683.537781,355.565094 
	C682.749695,353.733948 681.832703,351.950104 680.864563,350.205841 
	C668.902039,328.652679 654.125244,309.289001 636.364258,292.141602 
	C573.164062,231.124603 498.535400,207.412048 412.259125,225.569946 
	C364.051605,235.715805 322.166229,259.273682 288.415558,295.431854 
	C225.303375,363.045898 204.972305,442.597260 228.864746,531.650085 
	C245.226410,592.633911 282.610016,639.621338 336.414581,672.989502 
	C381.124054,700.717041 430.003876,712.900879 482.378418,708.699158 
	C528.844727,704.971375 571.289001,689.139343 609.124878,661.650879 
	C640.388489,638.937256 665.052368,610.491089 682.384521,575.859497 
	C688.983582,562.673706 686.621338,554.914429 673.967834,547.503235 
	C659.887817,539.256531 645.797241,531.026062 631.627869,522.934509 
	C621.419739,517.105164 614.072083,519.090454 608.186218,529.178040 
	C604.247131,535.929138 600.907288,543.050720 596.692627,549.617126 
	C560.939941,605.319458 496.693115,631.984192 433.258362,619.427612 
	C357.435944,604.419006 298.569427,532.210815 307.529602,449.494751 
	C315.045685,380.109894 368.676727,320.003143 437.519897,308.926300 
	C500.203735,298.840515 550.273804,322.474304 590.397522,371.117310 
z"/>
<path fill="#B0B0B0" opacity="1.000000" stroke="none" 
	d="
M15.322125,15.751407 
	C16.058388,18.930073 16.693932,22.212393 16.694441,25.494808 
	C16.739916,317.658752 16.736597,609.822693 16.736597,901.986633 
	C16.736597,904.228455 16.736597,906.470215 16.736597,907.485474 
	C25.158310,907.071777 32.776371,906.377136 40.394909,906.371826 
	C143.893906,906.299805 247.393097,906.232300 350.891968,906.363342 
	C399.859497,906.425354 448.826782,907.200500 497.793671,907.151489 
	C630.593323,907.018677 763.392700,906.617798 896.192200,906.324402 
	C899.649780,906.316772 903.107422,906.323364 907.302063,906.323364 
	C907.302063,904.261963 907.302002,901.989441 907.302002,899.716919 
	C907.302002,706.052002 907.281067,512.387146 907.341431,318.722229 
	C907.346313,303.090210 908.202332,287.457611 908.164062,271.826538 
	C907.966431,191.195618 907.655090,110.564804 907.192383,29.935057 
	C907.161560,24.566910 908.333862,20.171972 912.185669,16.055639 
	C912.628967,17.280552 913.105469,18.830412 913.105652,20.380325 
	C913.138184,315.691010 913.137085,611.001709 913.137024,906.312378 
	C913.137024,908.457031 913.136963,910.601746 913.136963,913.057617 
	C613.512451,913.057617 314.291626,913.057617 14.396371,913.057617 
	C14.396371,911.028198 14.396303,909.097229 14.396380,907.166260 
	C14.401838,771.176636 14.411901,635.187012 14.411600,499.197418 
	C14.411246,340.209839 14.399788,181.222260 14.418317,22.234684 
	C14.418565,20.108139 14.748768,17.981630 15.322125,15.751407 
z"/>
<path fill="#272727" opacity="1.000000" stroke="none" 
	d="
M590.176270,370.837830 
	C550.273804,322.474304 500.203735,298.840515 437.519897,308.926300 
	C368.676727,320.003143 315.045685,380.109894 307.529602,449.494751 
	C298.569427,532.210815 357.435944,604.419006 433.258362,619.427612 
	C496.693115,631.984192 560.939941,605.319458 596.692627,549.617126 
	C600.907288,543.050720 604.247131,535.929138 608.186218,529.178040 
	C614.072083,519.090454 621.419739,517.105164 631.627869,522.934509 
	C645.797241,531.026062 659.887817,539.256531 673.967834,547.503235 
	C686.621338,554.914429 688.983582,562.673706 682.384521,575.859497 
	C665.052368,610.491089 640.388489,638.937256 609.124878,661.650879 
	C571.289001,689.139343 528.844727,704.971375 482.378418,708.699158 
	C430.003876,712.900879 381.124054,700.717041 336.414581,672.989502 
	C282.610016,639.621338 245.226410,592.633911 228.864746,531.650085 
	C204.972305,442.597260 225.303375,363.045898 288.415558,295.431854 
	C322.166229,259.273682 364.051605,235.715805 412.259125,225.569946 
	C498.535400,207.412048 573.164062,231.124603 636.364258,292.141602 
	C654.125244,309.289001 668.902039,328.652679 680.864563,350.205841 
	C681.832703,351.950104 682.749695,353.733948 683.537781,355.565094 
	C687.483887,364.733398 685.907715,371.337891 677.386841,376.654480 
	C665.243469,384.231232 652.728943,391.215118 640.339050,398.393646 
	C636.740112,400.478851 633.114807,402.557312 629.345520,404.301666 
	C620.606689,408.345825 613.458862,406.311798 608.133667,398.298096 
	C602.146362,389.287811 596.303345,380.181702 590.176270,370.837830 
z"/>
</svg>